<svg width="23" height="23" viewBox="0 0 23 23" fill="none" xmlns="http://www.w3.org/2000/svg">
<path d="M17.8662 6.7085C17.5819 6.7085 17.304 6.62419 17.0676 6.46623C16.8312 6.30828 16.6469 6.08377 16.5381 5.8211C16.4293 5.55844 16.4009 5.2694 16.4563 4.99055C16.5118 4.71171 16.6487 4.45557 16.8497 4.25453C17.0508 4.05349 17.3069 3.91658 17.5858 3.86112C17.8646 3.80565 18.1537 3.83412 18.4163 3.94292C18.679 4.05172 18.9035 4.23597 19.0614 4.47236C19.2194 4.70876 19.3037 4.98669 19.3037 5.271C19.3041 5.45989 19.2672 5.647 19.1951 5.82158C19.123 5.99617 19.0171 6.1548 18.8836 6.28837C18.75 6.42193 18.5914 6.5278 18.4168 6.5999C18.2422 6.672 18.0551 6.7089 17.8662 6.7085V6.7085Z" fill="#F3EAEA"/>
<rect x="0.5" y="0.5" width="22" height="22" rx="3.5" stroke="#F3EAEA"/>
<circle cx="11.4999" cy="11.5001" r="4.92857" stroke="#F3EAEA"/>
</svg>
