<svg width="393" height="122" viewBox="0 0 393 122" fill="none" xmlns="http://www.w3.org/2000/svg">
<path fill-rule="evenodd" clip-rule="evenodd" d="M23.1847 0H22.3987L0 18.4661V19.1141L23.1847 0ZM0 39.405V38.757L47.0108 0H47.7968L0 39.405ZM0 59.6965V59.0485L71.6237 0H72.4097L0 59.6965ZM0 79.9872V79.3392L96.2355 0H97.0215L0 79.9872ZM0 100.278V99.6299L120.847 0H121.633L0 100.278ZM0 120.569V119.921L145.459 0H146.245L0 120.569ZM22.8758 122H22.0899L170.071 0H170.857L22.8758 122ZM47.4877 122H46.7017L194.683 0H195.469L47.4877 122ZM72.1008 122H71.3148L219.296 0H220.082L72.1008 122ZM96.7127 122H95.9267L243.908 0H244.694L96.7127 122ZM121.324 122H120.538L268.52 0H269.306L121.324 122ZM145.937 122H145.151L293.133 0H293.919L145.937 122ZM170.548 122H169.762L317.744 0H318.53L170.548 122ZM195.161 122H194.375L342.357 0H343.143L195.161 122ZM219.773 122H218.987L366.969 0H367.755L219.773 122ZM244.385 122H243.599L391.58 0H392.366L244.385 122ZM268.998 122H268.212L393 19.1214V19.7695L268.998 122ZM293.61 122H292.824L393 39.4121V40.0601L293.61 122ZM318.222 122H317.436L393 59.7028V60.3508L318.222 122ZM342.834 122H342.048L393 79.9934V80.6414L342.834 122ZM367.446 122H366.66L393 100.284V100.932L367.446 122ZM392.059 122H391.273L393 120.576V121.224L392.059 122Z" fill="#F4F8FB"/>
</svg>
