<svg width="16" height="16" viewBox="0 0 16 16" fill="none" xmlns="http://www.w3.org/2000/svg">
<path d="M12.0752 3L1.63277 13.4682L1 15L2.53185 14.3672L13 3.92479L12.0752 3Z" stroke="#887568" stroke-linecap="round" stroke-linejoin="round"/>
<path d="M14.0525 1.15837L13.6665 1.54413L14.4556 2.33333L14.8416 1.94725C14.9429 1.84587 14.9998 1.70841 14.9998 1.56509C14.9998 1.42177 14.9429 1.28432 14.8416 1.18294L14.8171 1.15837C14.7669 1.10816 14.7073 1.06833 14.6417 1.04116C14.5761 1.01399 14.5058 1 14.4348 1C14.3638 1 14.2935 1.01399 14.2279 1.04116C14.1623 1.06833 14.1027 1.10816 14.0525 1.15837Z" stroke="#887568" stroke-linecap="round" stroke-linejoin="round"/>
</svg>
