<svg width="117" height="25" viewBox="0 0 117 25" fill="none" xmlns="http://www.w3.org/2000/svg">
<path d="M107.219 13.5622V22.7902H111.743C112.069 22.7556 112.395 22.8442 112.659 23.0386C112.749 23.1156 112.82 23.212 112.868 23.3207C112.915 23.4294 112.938 23.5474 112.933 23.666C112.935 23.7841 112.912 23.9013 112.864 24.0095C112.817 24.1178 112.747 24.2146 112.659 24.2934C112.391 24.4791 112.068 24.5669 111.743 24.5417H100.93C100.606 24.5669 100.282 24.4791 100.015 24.2934C99.927 24.2146 99.8569 24.1178 99.8095 24.0095C99.7621 23.9013 99.7386 23.7841 99.7405 23.666C99.7359 23.5474 99.7582 23.4294 99.8057 23.3207C99.8533 23.212 99.9249 23.1156 100.015 23.0386C100.278 22.8442 100.605 22.7556 100.93 22.7902H105.454V13.5622L97.7793 1.9552H96.7595C96.4363 1.98528 96.1128 1.90211 95.8442 1.71993C95.754 1.64292 95.6824 1.54644 95.6348 1.43777C95.5873 1.3291 95.565 1.21105 95.5697 1.09253C95.5649 0.972074 95.5871 0.852078 95.6346 0.74128C95.6821 0.630482 95.7537 0.531672 95.8442 0.452051C96.1128 0.269874 96.4363 0.186701 96.7595 0.216775H101.532C101.855 0.188857 102.178 0.271848 102.447 0.452051C102.538 0.531672 102.609 0.630482 102.657 0.74128C102.704 0.852078 102.726 0.972074 102.722 1.09253C102.726 1.21105 102.704 1.3291 102.656 1.43777C102.609 1.54644 102.537 1.64292 102.447 1.71993C102.178 1.90013 101.855 1.98312 101.532 1.9552H99.8321L106.37 11.7976L112.737 1.9552H110.985C110.662 1.98528 110.338 1.90211 110.07 1.71993C109.987 1.63922 109.922 1.5411 109.882 1.43262C109.841 1.32414 109.825 1.20799 109.834 1.09253C109.83 0.972074 109.852 0.852078 109.899 0.74128C109.947 0.630482 110.018 0.531672 110.109 0.452051C110.377 0.269874 110.701 0.186701 111.024 0.216775H115.796C116.124 0.188972 116.45 0.27183 116.725 0.452051C116.815 0.531672 116.887 0.630482 116.934 0.74128C116.982 0.852078 117.004 0.972074 116.999 1.09253C117.004 1.21105 116.982 1.3291 116.934 1.43777C116.887 1.54644 116.815 1.64292 116.725 1.71993C116.45 1.90015 116.124 1.98301 115.796 1.9552H114.777L107.219 13.5622ZM83.9592 1.9552V22.7902H95.5958V15.8496C95.571 15.5373 95.6591 15.2265 95.8442 14.9738C95.925 14.8847 96.0241 14.8141 96.1346 14.7667C96.2452 14.7193 96.3647 14.6964 96.4849 14.6993C96.599 14.6959 96.7125 14.7162 96.8183 14.759C96.924 14.8017 97.0198 14.866 97.0994 14.9477C97.2907 15.2074 97.3792 15.5286 97.3478 15.8496V24.5417H78.0363C77.7239 24.5665 77.4131 24.4784 77.1603 24.2934C77.0747 24.2126 77.0063 24.1154 76.9591 24.0076C76.9119 23.8998 76.887 23.7836 76.8857 23.666C76.8838 23.5478 76.9073 23.4306 76.9546 23.3224C77.002 23.2141 77.0721 23.1173 77.1603 23.0386C77.4131 22.8535 77.7239 22.7654 78.0363 22.7902H82.2202V1.9552H78.0363C77.7212 1.98701 77.4053 1.90341 77.1472 1.71993C77.0614 1.63998 76.9938 1.54265 76.9487 1.43446C76.9036 1.32626 76.8821 1.20968 76.8857 1.09253C76.8827 0.973508 76.9044 0.855163 76.9494 0.744937C76.9944 0.634711 77.0618 0.534991 77.1472 0.452051C77.4018 0.271634 77.7125 0.188184 78.0232 0.216775H88.1301C88.4408 0.188184 88.7515 0.271634 89.0061 0.452051C89.0966 0.531672 89.1683 0.630482 89.2158 0.74128C89.2633 0.852078 89.2854 0.972074 89.2807 1.09253C89.2853 1.21105 89.2631 1.3291 89.2155 1.43777C89.1679 1.54644 89.0963 1.64292 89.0061 1.71993C88.7515 1.90034 88.4408 1.9838 88.1301 1.9552H83.9592ZM71.1197 12.1244V22.7902H74.153C74.4822 22.7597 74.8115 22.8477 75.0814 23.0386C75.1716 23.1156 75.2432 23.212 75.2908 23.3207C75.3383 23.4294 75.3606 23.5474 75.3559 23.666C75.3579 23.7841 75.3344 23.9013 75.287 24.0095C75.2396 24.1178 75.1695 24.2146 75.0814 24.2934C74.8078 24.4763 74.4814 24.5637 74.153 24.5417H66.6873C66.3627 24.5669 66.0394 24.4791 65.7721 24.2934C65.6839 24.2146 65.6138 24.1178 65.5664 24.0095C65.5191 23.9013 65.4955 23.7841 65.4975 23.666C65.4928 23.5474 65.5151 23.4294 65.5626 23.3207C65.6102 23.212 65.6818 23.1156 65.7721 23.0386C66.0353 22.8442 66.3619 22.7556 66.6873 22.7902H69.3023V12.1244H66.6873C66.3619 12.159 66.0353 12.0704 65.7721 11.876C65.676 11.7963 65.5988 11.6964 65.5458 11.5834C65.4927 11.4705 65.4652 11.3472 65.4652 11.2225C65.4652 11.0977 65.4927 10.9744 65.5458 10.8615C65.5988 10.7485 65.676 10.6487 65.7721 10.5689C66.0353 10.3746 66.3619 10.2859 66.6873 10.3206H74.1007C74.4299 10.29 74.7592 10.3781 75.0291 10.5689C75.1251 10.6487 75.2023 10.7485 75.2554 10.8615C75.3084 10.9744 75.3359 11.0977 75.3359 11.2225C75.3359 11.3472 75.3084 11.4705 75.2554 11.5834C75.2023 11.6964 75.1251 11.7963 75.0291 11.876C74.7592 12.0668 74.4299 12.1549 74.1007 12.1244H71.1197ZM35.8698 12.7779H24.2855V22.7902H26.6259C26.9513 22.7556 27.2779 22.8442 27.5412 23.0386C27.6314 23.1156 27.703 23.212 27.7506 23.3207C27.7981 23.4294 27.8204 23.5474 27.8157 23.666C27.8177 23.7841 27.7942 23.9013 27.7468 24.0095C27.6994 24.1178 27.6293 24.2146 27.5412 24.2934C27.2743 24.4801 26.9506 24.568 26.6259 24.5417H20.5723C20.2477 24.5669 19.9243 24.4791 19.657 24.2934C19.5689 24.2146 19.4988 24.1178 19.4514 24.0095C19.404 23.9013 19.3805 23.7841 19.3824 23.666C19.3778 23.5474 19.4001 23.4294 19.4476 23.3207C19.4952 23.212 19.5668 23.1156 19.657 23.0386C19.9203 22.8442 20.2468 22.7556 20.5723 22.7902H22.5335V1.9552H21.4744C21.1472 1.9851 20.8196 1.90207 20.5461 1.71993C20.4559 1.64292 20.3843 1.54644 20.3367 1.43777C20.2891 1.3291 20.2669 1.21105 20.2715 1.09253C20.2668 0.972074 20.2889 0.852078 20.3364 0.74128C20.3839 0.630482 20.4556 0.531672 20.5461 0.452051C20.8196 0.269912 21.1472 0.186881 21.4744 0.216775H26.6259C26.9491 0.186701 27.2726 0.269874 27.5412 0.452051C27.6317 0.531672 27.7033 0.630482 27.7508 0.74128C27.7983 0.852078 27.8205 0.972074 27.8157 1.09253C27.8204 1.21105 27.7981 1.3291 27.7506 1.43777C27.703 1.54644 27.6314 1.64292 27.5412 1.71993C27.2726 1.90211 26.9491 1.98528 26.6259 1.9552H24.2855V11.1048H35.8698V1.9552H33.5687C33.2457 1.98312 32.9229 1.90013 32.6534 1.71993C32.5632 1.64292 32.4916 1.54644 32.444 1.43777C32.3965 1.3291 32.3742 1.21105 32.3789 1.09253C32.3788 0.968914 32.4071 0.846936 32.4615 0.735925C32.5159 0.624914 32.595 0.527813 32.6927 0.452051C32.9603 0.26782 33.2846 0.184452 33.6079 0.216775H38.7202C39.0476 0.184704 39.3759 0.267918 39.6485 0.452051C39.739 0.531672 39.8106 0.630482 39.8581 0.74128C39.9056 0.852078 39.9278 0.972074 39.9231 1.09253C39.9277 1.21105 39.9054 1.3291 39.8579 1.43777C39.8103 1.54644 39.7387 1.64292 39.6485 1.71993C39.3759 1.90406 39.0476 1.98728 38.7202 1.9552H37.6611V22.7902H39.6223C39.9478 22.7556 40.2743 22.8442 40.5376 23.0386C40.6278 23.1156 40.6994 23.212 40.747 23.3207C40.7945 23.4294 40.8168 23.5474 40.8121 23.666C40.8141 23.7841 40.7906 23.9013 40.7432 24.0095C40.6958 24.1178 40.6257 24.2146 40.5376 24.2934C40.2703 24.4791 39.9469 24.5669 39.6223 24.5417H33.6079C33.2833 24.5669 32.96 24.4791 32.6927 24.2934C32.6045 24.2146 32.5344 24.1178 32.487 24.0095C32.4397 23.9013 32.4161 23.7841 32.4181 23.666C32.4134 23.5474 32.4357 23.4294 32.4832 23.3207C32.5308 23.212 32.6024 23.1156 32.6927 23.0386C32.9559 22.8442 33.2825 22.7556 33.6079 22.7902H35.9091V12.7779H35.8698Z" fill="#F3EAEA"/>
<path d="M48.6568 22.8164H62.0847V17.6664C62.0529 17.3515 62.1365 17.0356 62.3201 16.7776C62.3991 16.6864 62.4979 16.6143 62.6088 16.5667C62.7198 16.5192 62.8401 16.4974 62.9608 16.5031C63.0793 16.4985 63.1974 16.5207 63.3061 16.5683C63.4148 16.6158 63.5113 16.6874 63.5883 16.7776C63.7719 17.0356 63.8555 17.3515 63.8237 17.6664V24.5679H44.4598C44.1475 24.5927 43.8366 24.5046 43.5838 24.3195C43.4957 24.2408 43.4256 24.144 43.3782 24.0357C43.3308 23.9275 43.3073 23.8103 43.3092 23.6921C43.3045 23.5717 43.3266 23.4517 43.3741 23.3409C43.4216 23.2301 43.4933 23.1313 43.5838 23.0517C43.8384 22.8712 44.1491 22.7878 44.4598 22.8164H46.8525V1.98137H44.4598C44.1475 2.00619 43.8366 1.91806 43.5838 1.73302C43.4936 1.65601 43.4219 1.55954 43.3744 1.45086C43.3268 1.34219 43.3046 1.22415 43.3092 1.10562C43.3045 0.985168 43.3266 0.865172 43.3741 0.754374C43.4216 0.643576 43.4933 0.544766 43.5838 0.465145C43.8384 0.284728 44.1491 0.201278 44.4598 0.229869H74.6497V6.24248C74.6745 6.55472 74.5864 6.8655 74.4013 7.11823C74.3242 7.20845 74.2277 7.28003 74.119 7.32757C74.0103 7.37512 73.8922 7.39739 73.7737 7.39272C73.6532 7.39748 73.5331 7.37531 73.4223 7.32783C73.3115 7.28034 73.2126 7.20874 73.133 7.11823C72.9525 6.86374 72.869 6.55312 72.8976 6.24248V1.98137H48.6568V22.8164Z" fill="#F3EAEA"/>
<path d="M53.0894 12.3987C56.2666 9.22243 55.2337 9.22243 58.4109 12.3987C55.2337 15.5749 56.2666 15.5749 53.0894 12.3987ZM14.7278 2.24257V1.68052C14.6992 1.36988 14.7827 1.05926 14.9631 0.804773C15.04 0.718682 15.135 0.650614 15.2412 0.605426C15.3474 0.560238 15.4623 0.539044 15.5777 0.543355C15.6928 0.540794 15.8071 0.562785 15.9131 0.607861C16.0191 0.652937 16.1142 0.720064 16.1922 0.804773C16.3727 1.05926 16.4561 1.36988 16.4275 1.68052V5.99392C16.453 6.3002 16.3696 6.60564 16.1922 6.8566C16.1142 6.94131 16.0191 7.00843 15.9131 7.05351C15.8071 7.09859 15.6928 7.12058 15.5777 7.11802C15.4684 7.12354 15.3593 7.10537 15.2577 7.06476C15.1562 7.02415 15.0646 6.96206 14.9893 6.88274C14.8057 6.66402 14.7122 6.38362 14.7278 6.09849C14.6723 5.49614 14.4884 4.91267 14.1885 4.38734C13.8885 3.862 13.4795 3.40701 12.9888 3.05297C11.7511 2.11959 10.2219 1.65633 8.67414 1.74588C7.06743 1.65766 5.48461 2.16494 4.22869 3.1706C3.72703 3.57812 3.32243 4.09218 3.04426 4.67549C2.76609 5.25879 2.62132 5.8967 2.62048 6.5429C2.6152 7.18181 2.77269 7.81155 3.0781 8.37282C3.38497 8.89905 3.81024 9.34657 4.32021 9.67991C4.84106 10.0139 5.4038 10.2776 5.99379 10.4642C6.98452 10.7504 7.99363 10.9688 9.01409 11.1177C10.6448 11.318 12.2465 11.7084 13.7864 12.281C14.8502 12.7354 15.7587 13.4892 16.4014 14.4508C17.0146 15.4378 17.3238 16.5833 17.2905 17.7447C17.2963 18.6921 17.0917 19.6291 16.6915 20.488C16.2913 21.3469 15.7055 22.1064 14.9762 22.7116C13.2375 24.1683 11.0196 24.9276 8.75259 24.8421C7.44725 24.8972 6.14497 24.6765 4.93067 24.1945C3.71638 23.7125 2.61734 22.9801 1.70524 22.045V23.0253C1.73068 23.3316 1.64735 23.637 1.46989 23.888C1.39191 23.9727 1.29677 24.0398 1.19081 24.0849C1.08485 24.13 0.970499 24.152 0.855372 24.1494C0.740361 24.1511 0.626262 24.1288 0.520422 24.0837C0.414582 24.0387 0.319348 23.972 0.240853 23.888C0.0633933 23.637 -0.019935 23.3316 0.00550546 23.0253V18.3067C-0.0230946 17.9961 0.0603815 17.6854 0.240853 17.431C0.317733 17.3449 0.412672 17.2768 0.518896 17.2316C0.62512 17.1864 0.740011 17.1652 0.855372 17.1695C0.964418 17.1657 1.07307 17.1846 1.17438 17.2251C1.27569 17.2656 1.36743 17.3268 1.44374 17.4048C1.62623 17.6242 1.71957 17.9041 1.70524 18.1891C1.77179 18.8602 1.98267 19.509 2.32344 20.0911C2.66421 20.6731 3.1268 21.1747 3.67954 21.5614C5.14369 22.6392 6.9369 23.1752 8.75259 23.0776C10.5666 23.1757 12.3547 22.6139 13.7864 21.496C14.3682 21.0562 14.8424 20.49 15.1731 19.8401C15.5038 19.1902 15.6824 18.4737 15.6953 17.7447C15.7085 16.9023 15.462 16.0763 14.9893 15.3788C14.4421 14.6353 13.6935 14.0638 12.8319 13.7319C11.5243 13.282 10.1754 12.9624 8.80489 12.7777C6.63669 12.5474 4.55355 11.8084 2.72508 10.621C2.11525 10.1363 1.62903 9.514 1.3063 8.80511C0.983567 8.09623 0.833515 7.32096 0.868446 6.5429C0.867318 5.67093 1.05758 4.80933 1.42582 4.01887C1.79406 3.22842 2.3313 2.52836 2.99965 1.96808C4.55438 0.620564 6.56605 -0.0809713 8.62184 0.00744798C10.865 -0.035965 13.0431 0.761365 14.7278 2.24257Z" fill="#F3EAEA"/>
</svg>
