<svg width="19" height="22" viewBox="0 0 19 22" fill="none" xmlns="http://www.w3.org/2000/svg">
<path d="M2.69482 4.05078L3.63644 19.4591C3.68117 20.3494 4.31441 20.9999 5.14304 20.9999H13.8059C14.6379 20.9999 15.2593 20.3494 15.3125 19.4591L16.2541 4.05078" stroke="#B1A49C" stroke-linecap="round" stroke-linejoin="round"/>
<path d="M1 4.05078H17.9492" stroke="#B1A49C" stroke-miterlimit="10" stroke-linecap="round"/>
<path d="M6.42383 4.05085V2.14407C6.42339 1.99371 6.45268 1.84474 6.51002 1.70574C6.56736 1.56673 6.65162 1.44044 6.75794 1.33411C6.86426 1.22779 6.99056 1.14353 7.12956 1.08619C7.26857 1.02886 7.41753 0.999564 7.5679 1H11.3815C11.5318 0.999564 11.6808 1.02886 11.8198 1.08619C11.9588 1.14353 12.0851 1.22779 12.1914 1.33411C12.2977 1.44044 12.382 1.56673 12.4393 1.70574C12.4967 1.84474 12.526 1.99371 12.5255 2.14407V4.05085" stroke="#B1A49C" stroke-linecap="round" stroke-linejoin="round"/>
<path d="M9.47461 7.10181V17.9493" stroke="#B1A49C" stroke-linecap="round" stroke-linejoin="round"/>
<path d="M6.08472 7.10181L6.4237 17.9493" stroke="#B1A49C" stroke-linecap="round" stroke-linejoin="round"/>
<path d="M12.8644 7.10181L12.5254 17.9493" stroke="#B1A49C" stroke-linecap="round" stroke-linejoin="round"/>
</svg>
