<svg width="103" height="109" viewBox="0 0 103 109" fill="none" xmlns="http://www.w3.org/2000/svg">
<path fill-rule="evenodd" clip-rule="evenodd" d="M20.6812 0H19.9303L0 17.7891V18.4593L20.6812 0ZM0 38.75V38.0799L42.6636 0H43.4144L0 38.75ZM0 59.0411V58.3709L65.397 0H66.1479L0 59.0411ZM0 79.3319V78.6617L88.1302 0H88.8811L0 79.3319ZM0 99.623V98.9527L103 7.01885V7.68907L0 99.623ZM12.2276 109H11.4768L103 27.3099V27.9801L12.2276 109ZM34.9609 109H34.21L103 47.6007V48.2709L34.9609 109ZM57.6941 109H56.9433L103 67.8915V68.5617L57.6941 109ZM80.4276 109H79.6768L103 88.1826V88.8527L80.4276 109ZM103 108.474V109H102.41L103 108.474Z" fill="#F4F8FB"/>
</svg>
