<svg width="23" height="23" viewBox="0 0 23 23" fill="none" xmlns="http://www.w3.org/2000/svg">
<path fill-rule="evenodd" clip-rule="evenodd" d="M16.1969 13.7156C15.9399 13.5768 14.674 12.9065 14.4395 12.8141C14.2051 12.7217 14.032 12.6752 13.8608 12.9529C13.6896 13.2306 13.1963 13.852 13.0463 14.0393C12.8963 14.2266 12.7463 14.2471 12.4893 14.1082C12.2322 13.9694 11.4029 13.6772 10.4204 12.7331C9.6557 11.9984 9.13975 11.0913 8.98976 10.8141C8.83978 10.5369 8.97361 10.3865 9.10237 10.2487C9.2182 10.1243 9.35942 9.92499 9.48818 9.76316C9.61693 9.60132 9.65985 9.48544 9.74523 9.30063C9.83061 9.11582 9.78815 8.95398 9.724 8.81562C9.65985 8.67726 9.14529 7.31315 8.93115 6.75821C8.7221 6.21776 8.51027 6.29119 8.35244 6.28269C8.20246 6.2747 8.0294 6.27271 7.8591 6.27271C7.72892 6.27637 7.60084 6.30905 7.48284 6.36869C7.36485 6.42833 7.25948 6.51366 7.17332 6.61935C6.9375 6.89707 6.27295 7.56839 6.27295 8.931C6.27295 10.2936 7.19594 11.6123 7.32331 11.7971C7.45068 11.9819 9.13698 14.7806 11.7172 15.9808C12.1963 16.2029 12.6859 16.3977 13.1838 16.5643C13.7999 16.775 14.3606 16.7456 14.8037 16.6741C15.2979 16.5947 16.3266 16.0038 16.5403 15.3565C16.7539 14.7091 16.7544 14.1547 16.6903 14.0393C16.6261 13.9239 16.4544 13.854 16.1969 13.7156Z" fill="#F3EAEA"/>
<path d="M2.16103 17.6207L2.22043 17.4107L2.10687 17.2244C0.710097 14.9324 0.199513 12.2088 0.671277 9.56657C1.14304 6.92431 2.5646 4.54571 4.66823 2.87872C6.77186 1.21173 9.41239 0.371401 12.0925 0.515981C14.7727 0.660562 17.3075 1.78008 19.2196 3.66369C21.1317 5.5473 22.2891 8.06503 22.4739 10.7427C22.6587 13.4204 21.8581 16.0732 20.2228 18.2016C18.5876 20.33 16.2306 21.7871 13.5957 22.2985C10.9608 22.8099 8.22989 22.3402 5.91722 20.978L5.7404 20.8738L5.5414 20.9239L0.895594 22.0934L2.16103 17.6207Z" stroke="#F3EAEA"/>
</svg>
