<svg width="97" height="29" viewBox="0 0 97 29" fill="none" xmlns="http://www.w3.org/2000/svg">
<g clip-path="url(#clip0)">
<path d="M0.34 7.03998H2.66C2.8 7.03998 2.93 7.12998 2.98 7.26998L6.76 18.17H6.82L10.59 7.26998C10.64 7.12998 10.76 7.03998 10.91 7.03998H13.25C13.44 7.03998 13.59 7.18998 13.59 7.37998V27.72C13.59 27.91 13.44 28.06 13.25 28.06H10.9C10.71 28.06 10.56 27.91 10.56 27.72V15.27H10.5L7.61 24.08C7.56 24.22 7.44 24.31 7.29 24.31H6.27C6.12 24.31 6 24.22 5.95 24.08L3.07 15.27H3.01V27.72C3.01 27.91 2.86 28.06 2.67 28.06H0.34C0.15 28.06 0 27.91 0 27.72V7.37998C0 7.18998 0.15 7.03998 0.34 7.03998Z" fill="#231F20"/>
<path d="M22.66 7.03998H30.97C31.16 7.03998 31.31 7.18998 31.31 7.37998V9.52998C31.31 9.71998 31.16 9.86998 30.97 9.86998H25.68C25.49 9.86998 25.34 10.02 25.34 10.21V15.71C25.34 15.9 25.49 16.05 25.68 16.05H30.21C30.4 16.05 30.55 16.2 30.55 16.39V18.56C30.55 18.75 30.4 18.9 30.21 18.9H25.68C25.49 18.9 25.34 19.05 25.34 19.24V24.74C25.34 24.93 25.49 25.08 25.68 25.08H30.97C31.16 25.08 31.31 25.23 31.31 25.42V27.76C31.31 27.95 31.16 28.1 30.97 28.1H22.66C22.47 28.1 22.32 27.95 22.32 27.76V7.37998C22.32 7.18998 22.47 7.03998 22.66 7.03998Z" fill="#231F20"/>
<path d="M39.15 7.37998C39.15 7.18998 39.3 7.03998 39.49 7.03998H44C47.55 7.03998 49.32 9.09998 49.32 13.21C49.32 14.43 49.13 15.48 48.74 16.35C48.39 17.15 47.79 17.81 46.96 18.32C46.82 18.4 46.76 18.56 46.81 18.72L49.82 27.62C49.89 27.84 49.73 28.06 49.5 28.06H47.03C46.88 28.06 46.75 27.96 46.71 27.82L44.05 19.31C44.01 19.17 43.88 19.07 43.73 19.07H42.5C42.31 19.07 42.16 19.22 42.16 19.41V27.72C42.16 27.91 42.01 28.06 41.82 28.06H39.48C39.29 28.06 39.14 27.91 39.14 27.72V7.37998H39.15ZM42.16 16.09C42.16 16.28 42.31 16.43 42.5 16.43H43.88C44.41 16.43 44.83 16.36 45.15 16.21C45.47 16.06 45.71 15.85 45.88 15.58C46.05 15.31 46.16 14.97 46.22 14.56C46.28 14.16 46.31 13.69 46.31 13.16C46.31 12.62 46.28 12.15 46.22 11.75C46.16 11.35 46.04 11 45.85 10.72C45.66 10.44 45.4 10.23 45.06 10.09C44.72 9.94998 44.28 9.87998 43.73 9.87998H42.5C42.31 9.87998 42.16 10.03 42.16 10.22V16.09Z" fill="#231F20"/>
<path d="M86.6 7.03998H88.92C89.06 7.03998 89.19 7.12998 89.24 7.25998L93.7 19.7H93.76V7.37998C93.76 7.18998 93.91 7.03998 94.1 7.03998H96.44C96.63 7.03998 96.78 7.18998 96.78 7.37998V27.72C96.78 27.91 96.63 28.06 96.44 28.06H94.19C94.05 28.06 93.92 27.97 93.87 27.84L89.34 15.42H89.28V27.72C89.28 27.91 89.13 28.06 88.94 28.06H86.6C86.41 28.06 86.26 27.91 86.26 27.72V7.37998C86.27 7.18998 86.42 7.03998 86.6 7.03998Z" fill="#231F20"/>
<path d="M58.5 7.03998H60.03C60.44 7.03998 60.77 7.36998 60.77 7.77998V16.04V24.3C60.77 24.71 61.1 25.04 61.51 25.04H63.75H66C66.41 25.04 66.74 25.37 66.74 25.78V27.31C66.74 27.72 66.41 28.05 66 28.05H62.25H58.5C58.09 28.05 57.76 27.72 57.76 27.31V17.54V7.77998C57.76 7.37998 58.09 7.03998 58.5 7.03998Z" fill="#F9ED39"/>
<path d="M59.48 7.04999C59.49 6.66999 59.8 6.36999 60.17 6.35999C60.18 6.34999 61.58 6.33999 61.59 6.33999C61.97 6.28999 62.28 6.62999 62.29 6.99999C62.32 6.99999 62.34 14.44 62.37 14.46C62.38 14.47 62.39 18.16 62.4 18.17C62.41 18.18 62.42 21.94 62.42 21.95C62.42 22.32 62.72 22.62 63.09 22.63C63.09 22.64 65.11 22.64 65.12 22.65C65.12 22.66 67.14 22.66 67.14 22.67C67.51 22.67 67.79 22.98 67.81 23.35V24.74C67.81 25.13 67.51 25.45 67.13 25.46C67.11 25.52 63.68 25.55 63.62 25.55C63.6 25.55 60.2 25.55 60.19 25.54C59.82 25.54 59.51 25.24 59.51 24.87C59.47 24.84 59.44 16.01 59.44 15.95C59.44 15.91 59.45 7.07999 59.48 7.04999Z" fill="#E3D94F"/>
<path d="M61.2 6.31998C61.22 5.97998 61.5 5.69998 61.85 5.67998C61.88 5.65998 63.13 5.64998 63.16 5.63998C63.51 5.58998 63.8 5.89998 63.83 6.21998C63.89 6.21998 63.94 12.84 63.98 12.87C64 12.88 64.02 16.18 64.04 16.19C64.06 16.21 64.07 19.56 64.09 19.58C64.09 19.91 64.36 20.19 64.69 20.19C64.7 20.2 66.5 20.22 66.5 20.23C66.5 20.24 68.3 20.26 68.3 20.27C68.63 20.28 68.88 20.55 68.9 20.88C68.9 20.89 68.9 22.13 68.9 22.14C68.9 22.51 68.63 22.81 68.29 22.84C68.25 22.95 65.14 23.03 65.01 23.03C64.97 23.03 61.93 23.02 61.89 23.01C61.55 23.01 61.28 22.73 61.26 22.4C61.17 22.35 61.11 14.44 61.11 14.33C61.12 14.26 61.15 6.36998 61.2 6.31998Z" fill="#CEC65D"/>
<path d="M62.93 5.58001C62.95 5.27001 63.21 5.02001 63.53 5.00001C63.57 4.98001 64.68 4.95001 64.73 4.95001C65.05 4.91001 65.32 5.17001 65.36 5.46001C65.44 5.46001 65.52 11.26 65.59 11.3C65.62 11.32 65.65 14.21 65.68 14.24C65.71 14.27 65.73 17.21 65.75 17.25C65.76 17.55 65.99 17.79 66.28 17.8C66.29 17.82 67.87 17.84 67.87 17.86C67.88 17.88 69.45 17.9 69.46 17.92C69.75 17.93 69.97 18.17 69.98 18.47C69.98 18.48 69.98 19.57 69.98 19.59C69.98 19.94 69.74 20.22 69.43 20.28C69.36 20.45 66.58 20.56 66.39 20.56C66.33 20.56 63.64 20.55 63.59 20.52C63.29 20.51 63.04 20.27 63.02 19.98C62.89 19.9 62.8 12.92 62.8 12.75C62.79 12.61 62.84 5.66001 62.93 5.58001Z" fill="#B9B463"/>
<path d="M64.65 4.85003C64.68 4.57003 64.92 4.34003 65.2 4.32003C65.25 4.29003 66.23 4.26003 66.29 4.25003C66.58 4.21003 66.83 4.43003 66.88 4.68003C66.99 4.68003 67.09 9.67003 67.18 9.72003C67.22 9.75003 67.27 12.24 67.3 12.27C67.34 12.31 67.37 14.85 67.39 14.89C67.4 15.15 67.6 15.36 67.85 15.37C67.86 15.4 69.22 15.42 69.23 15.45C69.24 15.48 70.59 15.5 70.6 15.53C70.85 15.54 71.04 15.76 71.05 16.02C71.05 16.04 71.05 16.98 71.05 17C71.05 17.32 70.84 17.6 70.56 17.67C70.47 17.89 68 18.05 67.75 18.05C67.67 18.05 65.33 18.03 65.26 18C64.99 17.99 64.77 17.78 64.75 17.52C64.57 17.42 64.45 11.36 64.45 11.14C64.47 10.97 64.54 4.96003 64.65 4.85003Z" fill="#A4A164"/>
<path d="M66.37 4.11003C66.41 3.86003 66.62 3.66003 66.88 3.63003C66.95 3.59003 67.78 3.55003 67.86 3.54003C68.12 3.50003 68.35 3.68003 68.41 3.89003C68.55 3.89003 68.68 8.06003 68.79 8.12003C68.85 8.15003 68.9 10.24 68.94 10.29C68.99 10.34 69.02 12.47 69.06 12.52C69.07 12.74 69.24 12.92 69.46 12.94C69.48 12.97 70.61 13 70.62 13.04C70.63 13.07 71.76 13.11 71.77 13.14C71.98 13.16 72.14 13.34 72.15 13.57C72.15 13.59 72.15 14.39 72.15 14.41C72.15 14.71 71.97 14.97 71.73 15.06C71.62 15.34 69.47 15.53 69.16 15.53C69.05 15.53 67.08 15.51 66.99 15.47C66.76 15.46 66.56 15.28 66.54 15.06C66.32 14.93 66.17 9.80003 66.17 9.53003C66.15 9.32003 66.23 4.25003 66.37 4.11003Z" fill="#908E62"/>
<path d="M68.09 3.37998C68.14 3.16998 68.33 2.98998 68.55 2.94998C68.63 2.89998 69.33 2.85998 69.42 2.83998C69.65 2.79998 69.86 2.94998 69.93 3.10998C70.1 3.10998 70.25 6.45998 70.38 6.53998C70.45 6.57998 70.51 8.26998 70.56 8.31998C70.61 8.36998 70.66 10.1 70.7 10.17C70.71 10.35 70.85 10.5 71.03 10.52C71.05 10.56 71.96 10.6 71.97 10.64C71.98 10.68 72.89 10.72 72.9 10.76C73.07 10.78 73.2 10.94 73.21 11.12C73.21 11.15 73.21 11.79 73.21 11.82C73.21 12.1 73.05 12.35 72.85 12.45C72.72 12.78 70.89 13.02 70.51 13.02C70.38 13.02 68.77 12.97 68.65 12.95C68.46 12.9 68.29 12.79 68.25 12.6C67.98 12.44 67.8 8.24998 67.8 7.90998C67.83 7.66998 67.93 3.53998 68.09 3.37998Z" fill="#7F7E5F"/>
<path d="M69.81 2.64002C69.87 2.46002 70.04 2.34002 70.22 2.27002C70.32 2.23002 70.87 2.16002 70.98 2.14002C71.18 2.11002 71.37 2.21002 71.46 2.33002C71.65 2.33002 71.83 4.86002 71.99 4.95002C72.07 5.00002 72.14 6.28002 72.2 6.34002C72.26 6.40002 72.32 7.72002 72.36 7.80002C72.37 7.94002 72.48 8.07002 72.62 8.09002C72.64 8.13002 73.33 8.18002 73.35 8.23002C73.37 8.28002 74.05 8.33002 74.06 8.38002C74.19 8.41002 74.28 8.53002 74.29 8.68002C74.29 8.71002 74.3 9.21002 74.3 9.25002C74.3 9.51002 74.17 9.74002 74 9.86002C73.84 10.25 72.34 10.52 71.9 10.52C71.75 10.52 70.49 10.47 70.36 10.43C70.2 10.39 70.06 10.29 70.02 10.15C69.71 9.97002 69.5 6.70002 69.5 6.31002C69.51 6.03002 69.62 2.84002 69.81 2.64002Z" fill="#6B6B58"/>
<path d="M71.54 1.91C71.61 1.76 71.75 1.66 71.91 1.59C72.02 1.54 72.43 1.47 72.56 1.45C72.73 1.42 72.9 1.48 73 1.56C73.22 1.56 73.43 3.27 73.61 3.38C73.7 3.43 73.78 4.32 73.86 4.39C73.93 4.46 74 5.38 74.05 5.47C74.06 5.58 74.14 5.67 74.24 5.69C74.26 5.74 74.73 5.79 74.75 5.85C74.77 5.9 75.23 5.96 75.24 6.02C75.33 6.05 75.39 6.15 75.4 6.26C75.4 6.3 75.41 6.65 75.41 6.69C75.41 6.93 75.31 7.15 75.18 7.28C75 7.72 73.82 8.04 73.31 8.04C73.14 8.04 72.24 7.99 72.08 7.94C71.96 7.9 71.84 7.83 71.8 7.72C71.44 7.51 71.21 5.17 71.21 4.73C71.18 4.38 71.32 2.13 71.54 1.91Z" fill="#57574D"/>
<path d="M73.26 1.17999C73.35 1.06999 73.45 0.979988 73.58 0.909988C73.7 0.849988 73.98 0.779988 74.12 0.749988C74.26 0.719988 74.4 0.809988 74.52 0.779988C74.76 0.739988 75 1.66999 75.2 1.78999C75.3 1.84999 75.39 2.32999 75.48 2.40999C75.56 2.48999 75.65 2.98999 75.69 3.09999C75.72 3.16999 75.76 3.22999 75.81 3.25999C75.84 3.31999 76.09 3.36999 76.11 3.43999C76.13 3.49999 76.37 3.55999 76.38 3.62999C76.43 3.65999 76.46 3.72999 76.47 3.79999C76.47 3.83999 76.48 4.03999 76.48 4.08999C76.48 4.30999 76.4 4.49999 76.31 4.66999C76.06 5.14999 75.25 5.51999 74.68 5.51999C74.49 5.51999 73.94 5.46999 73.77 5.40999C73.68 5.37999 73.6 5.32999 73.55 5.25999C73.15 5.01999 72.88 3.60999 72.88 3.10999C72.86 2.73999 73.04 1.44999 73.26 1.17999Z" fill="#3F3F3B"/>
<path d="M77.55 1.51C77.55 2.34 76.88 3.02 76.04 3.02C75.21 3.02 74.53 2.35 74.53 1.51C74.53 1.09 74.7 0.72 74.97 0.44C75.25 0.17 75.63 0 76.04 0C76.45 0 76.83 0.17 77.11 0.44C77.39 0.71 77.55 1.09 77.55 1.51Z" fill="black"/>
<path d="M74.88 7.03998H77.22C77.41 7.03998 77.56 7.18998 77.56 7.37998V27.72C77.56 27.91 77.41 28.06 77.22 28.06H74.88C74.69 28.06 74.54 27.91 74.54 27.72V7.37998C74.54 7.18998 74.69 7.03998 74.88 7.03998Z" fill="#231F20"/>
<path d="M58.56 7.03998H59.96C60.4 7.03998 60.76 7.39998 60.76 7.83998V16.04V24.24C60.76 24.68 61.12 25.04 61.56 25.04H63.74H65.92C66.36 25.04 66.72 25.4 66.72 25.84V27.24C66.72 27.68 66.36 28.04 65.92 28.04H62.23H58.54C58.1 28.04 57.74 27.68 57.74 27.24V22.79V17.54V7.83998C57.76 7.39998 58.12 7.03998 58.56 7.03998Z" fill="#231F20"/>
<path d="M65.94 28.12H58.57C58.09 28.12 57.7 27.73 57.7 27.25V7.84998C57.7 7.36998 58.09 6.97998 58.57 6.97998H59.97C60.45 6.97998 60.84 7.36998 60.84 7.84998V24.24C60.84 24.65 61.17 24.98 61.58 24.98H65.94C66.42 24.98 66.81 25.37 66.81 25.85V27.25C66.8 27.73 66.41 28.12 65.94 28.12ZM58.56 7.10998C58.15 7.10998 57.82 7.43998 57.82 7.84998V27.26C57.82 27.67 58.15 28 58.56 28H65.93C66.34 28 66.67 27.67 66.67 27.26V25.86C66.67 25.45 66.34 25.12 65.93 25.12H61.57C61.09 25.12 60.7 24.73 60.7 24.25V7.84998C60.7 7.43998 60.37 7.10998 59.96 7.10998H58.56Z" fill="white"/>
</g>
<defs>
<clipPath id="clip0">
<rect width="96.77" height="28.12" fill="white"/>
</clipPath>
</defs>
</svg>
